# xmcd
#
# Track frame offsets:
#	150
#	12500
#	29428
#	46508
#	62855
#	76993
#	90690
#	104060
#	120405
#	137203
#	154283
#	168758
#
# Disc length: 2421 seconds
#
# Revision: 1
# Processed by: cddbd v1.4PL0 Copyright (c) Steve Scherf et al.
# Submitted via: audiograbber 1.80
#
DISCID=9709730c
DTITLE=Stella Parton - Picture In A Frame
DYEAR=1900
DGENRE=
TTITLE0=Young Love
TTITLE1=Mandolin Rain
TTITLE2=Verona
TTITLE3=Smiling
TTITLE4=Something To Go By
TTITLE5=Fragile
TTITLE6=Like Lovers Do
TTITLE7=Picture In A Frame
TTITLE8=Cross My Heart
TTITLE9=I'll Believe It When I Dont See It
TTITLE10=My Dreams Came True Overnight
TTITLE11=The Flame
EXTD=
EXTT0=
EXTT1=
EXTT2=
EXTT3=
EXTT4=
EXTT5=
EXTT6=
EXTT7=
EXTT8=
EXTT9=
EXTT10=
EXTT11=Written By Dolly Parton
PLAYORDER=
